<svg xmlns="http://www.w3.org/2000/svg" viewBox="0 0 226.18 129.79"><defs><style>.cls-1{fill:#ff2a00;}</style></defs><title>LAB42_logo</title><g id="Camada_2" data-name="Camada 2"><g id="Camada_1-2" data-name="Camada 1"><path class="cls-1" d="M214.18,28.46A16,16,0,0,0,204.21,0H147V42.53L130.19,0H84.26L68,41.27H21.3V0H0V59.91H84.6l4.72-12h35.81l4.73,12H210.2a16,16,0,0,0,4-31.45ZM95.36,32.62,107.23,2.53,119.1,32.62Zm72.91-18h26.62a4,4,0,1,1,0,8H168.27Zm32.61,30.62H168.27v-8h32.61a4,4,0,1,1,0,8Z"/><path class="cls-1" d="M172.26,111.42a2,2,0,0,1,1.78-2l36.39-4.14a17.76,17.76,0,0,0-2-35.41H152.29V85.52H202.5a2.39,2.39,0,0,1,.26,4.76l-37.63,4.28A16,16,0,0,0,155,99.83H145.7V69.88H101.77l-26.62,30v16.65H124.4v13.31h21.3V116.48H151v13.31h73.89V114.15H172.26ZM124.4,99.83H99.77l24.63-27.7Z"/></g></g></svg>